<svg version="1.1" id="Layer_1" xmlns="http://www.w3.org/2000/svg" xmlns:xlink="http://www.w3.org/1999/xlink" x="0px" y="0px"
	 width="100%" viewBox="0 0 816 536" enable-background="new 0 0 816 536" xml:space="preserve">
<path fill="#5F9AB7" opacity="1.000000" stroke="none" 
	d="
M465.000000,1.000000 
	C510.354218,1.000000 555.708435,1.000000 601.531372,1.461943 
	C603.527405,15.085014 604.771667,28.287577 606.689941,41.391483 
	C607.814270,49.072044 609.246277,56.875896 611.900696,64.126068 
	C616.256104,76.022430 620.870422,87.978462 626.940918,99.051155 
	C633.673279,111.331230 641.585388,123.086525 650.065979,134.248077 
	C657.010315,143.387634 665.202515,151.672180 673.476807,159.679276 
	C680.375793,166.355423 687.814270,172.635239 695.717102,178.067307 
	C703.586426,183.476303 712.169556,187.935822 720.739197,192.211517 
	C729.072998,196.369553 736.680237,202.121567 746.411316,203.420914 
	C751.013428,204.035416 755.368591,206.385803 759.884888,207.791199 
	C763.741089,208.991180 767.662964,209.982803 771.565918,211.028732 
	C773.001099,211.413330 774.752502,211.288208 775.866089,212.085205 
	C780.435669,215.355545 785.580139,214.985809 790.739990,215.039734 
	C794.218750,215.076096 797.690186,215.584167 801.171021,215.703156 
	C806.444580,215.883423 811.723389,215.908813 817.000000,216.000000 
	C817.000000,261.354218 817.000000,306.708466 816.531372,352.531342 
	C807.266846,352.342224 798.583496,353.525146 789.627502,350.582489 
	C782.040527,348.089691 773.205627,349.455109 764.932983,348.949707 
	C762.681946,348.812164 760.449646,348.154083 758.239685,347.609528 
	C754.947021,346.798218 751.722900,345.644409 748.395691,345.051239 
	C742.558838,344.010620 736.505127,343.856781 730.841431,342.266266 
	C725.140625,340.665344 719.877625,337.570190 714.289612,335.486847 
	C707.278503,332.872955 700.141479,330.593658 693.040527,328.224609 
	C687.679810,326.436188 682.290344,324.733704 676.921509,322.525452 
	C676.951538,318.062317 677.004089,314.066620 676.989319,310.071198 
	C676.963684,303.146942 675.047791,301.213287 668.148499,301.043518 
	C656.838562,300.765198 645.523010,300.616211 634.221619,300.135406 
	C629.686646,299.942474 627.124512,296.410248 627.217896,291.510315 
	C627.313965,286.470215 629.872070,283.264984 634.360718,282.951630 
	C638.009338,282.696930 641.681030,282.788300 645.341370,282.684570 
	C658.919495,282.299927 660.108459,281.085175 660.068054,267.685150 
	C660.063599,266.187439 660.093567,264.681396 659.953003,263.193848 
	C659.534973,258.769409 657.244263,256.144226 652.634583,255.945114 
	C647.148865,255.708145 641.652161,255.648651 636.176208,255.276855 
	C629.295654,254.809647 626.971008,251.856354 627.176941,244.310898 
	C627.381592,236.812729 629.854797,234.058609 636.876465,233.958481 
	C646.365051,233.823212 655.856323,233.883865 665.346313,233.836716 
	C676.204041,233.782776 677.628418,231.050003 677.022522,222.421173 
	C676.929504,221.095718 677.010498,219.758072 677.010376,218.426056 
	C677.009583,208.657043 675.612061,207.095657 665.881042,207.048325 
	C645.901428,206.951157 625.920959,206.965912 605.941101,207.014923 
	C595.206970,207.041245 593.796448,208.424393 593.727234,219.069077 
	C593.640625,232.388611 593.722351,245.709167 593.701416,259.029236 
	C593.697266,261.688354 593.558228,264.347260 593.122559,267.000305 
	C588.957397,264.986542 584.783813,263.451324 581.437256,260.851593 
	C577.221313,257.576447 573.680786,253.431732 569.830322,249.302856 
	C569.975159,247.824432 570.138550,246.705338 570.253052,245.920822 
	C572.286194,245.631195 573.975037,245.390594 576.939514,244.968292 
	C564.454163,239.095795 562.615356,236.257706 564.348816,227.074448 
	C566.180176,217.372131 562.371460,211.069626 552.702026,209.202713 
	C545.900269,207.889481 538.903381,207.586456 531.891357,206.514069 
	C528.097168,200.720413 524.151001,195.396652 520.773315,189.733887 
	C515.802246,181.399689 510.978699,172.955521 506.562683,164.317734 
	C500.846100,153.136078 495.458679,141.779373 490.204315,130.371475 
	C488.064484,125.725662 486.433105,120.812248 484.942871,115.907410 
	C481.589020,104.868675 478.183258,93.831825 475.333405,82.657814 
	C472.593964,71.916679 469.633423,61.106312 468.376740,50.142200 
	C466.508911,33.846546 466.055420,17.388775 465.000000,1.000000 
z"/>
<path fill="#4A8CAE" opacity="1.000000" stroke="none" 
	d="
M403.000000,537.000000 
	C354.979095,537.000000 306.958221,537.000000 258.429718,536.643555 
	C257.007446,534.746582 256.306488,533.018555 255.144638,531.695068 
	C244.832779,519.948425 234.033249,508.604279 224.168289,496.497131 
	C210.520493,479.747375 196.789276,462.971527 184.504578,445.229980 
	C170.406021,424.868927 157.358490,403.730713 144.736801,382.407806 
	C125.105682,349.243195 108.978851,314.287964 95.088196,278.378296 
	C81.197449,242.468369 69.740234,205.741058 61.823517,168.010803 
	C57.622509,147.989258 53.340519,127.944458 50.322273,107.726952 
	C47.625343,89.661751 46.205029,71.372452 44.976822,53.131176 
	C43.809105,35.788376 43.619606,18.379707 43.000000,1.000000 
	C72.687561,1.000000 102.375122,1.000000 132.537872,1.431491 
	C133.325607,4.334655 133.761139,6.797875 133.931686,9.279308 
	C135.638870,34.117912 136.507889,59.046867 139.226273,83.773010 
	C141.455994,104.054482 145.124908,124.260223 149.521454,144.198410 
	C154.171967,165.288208 160.437271,186.021942 165.532059,206.969971 
	C159.904617,207.019424 154.737503,206.863892 149.581223,207.034988 
	C141.784180,207.293686 139.725128,210.104004 141.961365,217.550400 
	C145.210480,228.369568 148.654099,239.130371 152.023285,249.913406 
	C158.710419,271.315430 165.383041,292.722015 172.103302,314.113617 
	C175.047760,323.486267 177.258850,325.085388 187.209320,325.161835 
	C193.870300,325.213043 200.533447,325.078217 207.192993,325.187500 
	C211.946442,325.265503 215.899765,323.858582 219.103363,320.012787 
	C220.802765,321.689453 222.427505,323.100494 223.457870,324.859680 
	C229.954193,335.951080 235.833099,347.436066 242.839615,358.189209 
	C253.513046,374.570221 264.723053,390.615784 276.126343,406.501495 
	C282.470001,415.338776 289.534119,423.674713 296.524658,432.026398 
	C301.395721,437.845917 306.784485,443.228821 311.777618,448.950256 
	C318.288300,456.410645 324.093475,464.572174 331.166046,471.439270 
	C346.454254,486.283447 362.251709,500.611176 378.066833,514.900024 
	C383.287292,519.616577 389.368469,523.369263 394.734772,527.939880 
	C397.822327,530.569580 400.266327,533.954834 403.000000,537.000000 
z"/>
<path fill="#4689AC" opacity="1.000000" stroke="none" 
	d="
M42.531342,1.000000 
	C43.619606,18.379707 43.809105,35.788376 44.976822,53.131176 
	C46.205029,71.372452 47.625343,89.661751 50.322273,107.726952 
	C53.340519,127.944458 57.622509,147.989258 61.823517,168.010803 
	C69.740234,205.741058 81.197449,242.468369 95.088196,278.378296 
	C108.978851,314.287964 125.105682,349.243195 144.736801,382.407806 
	C157.358490,403.730713 170.406021,424.868927 184.504578,445.229980 
	C196.789276,462.971527 210.520493,479.747375 224.168289,496.497131 
	C234.033249,508.604279 244.832779,519.948425 255.144638,531.695068 
	C256.306488,533.018555 257.007446,534.746582 257.961060,536.643555 
	C224.979111,537.000000 191.958206,537.000000 158.371857,536.667725 
	C155.394913,532.584595 153.240097,528.634888 150.520523,525.122559 
	C144.123322,516.860596 136.995712,509.131165 131.000900,500.598083 
	C120.613052,485.811829 110.967834,470.506439 100.813156,455.553253 
	C86.698891,434.769348 74.723343,412.751556 63.317657,390.434418 
	C54.782043,373.733124 46.742001,356.766083 38.926544,339.713318 
	C33.257942,327.344849 27.863251,314.810028 23.161467,302.049042 
	C16.397951,283.692383 10.399317,265.054413 4.004733,246.560547 
	C3.222381,244.297897 2.012012,242.183243 1.000003,240.000000 
	C1.000000,160.333313 1.000000,80.666618 1.000000,1.000000 
	C14.771999,1.000000 28.417341,1.000000 42.531342,1.000000 
z"/>
<path fill="#669EBA" opacity="1.000000" stroke="none" 
	d="
M817.000000,215.531342 
	C811.723389,215.908813 806.444580,215.883423 801.171021,215.703156 
	C797.690186,215.584167 794.218750,215.076096 790.739990,215.039734 
	C785.580139,214.985809 780.435669,215.355545 775.866089,212.085205 
	C774.752502,211.288208 773.001099,211.413330 771.565918,211.028732 
	C767.662964,209.982803 763.741089,208.991180 759.884888,207.791199 
	C755.368591,206.385803 751.013428,204.035416 746.411316,203.420914 
	C736.680237,202.121567 729.072998,196.369553 720.739197,192.211517 
	C712.169556,187.935822 703.586426,183.476303 695.717102,178.067307 
	C687.814270,172.635239 680.375793,166.355423 673.476807,159.679276 
	C665.202515,151.672180 657.010315,143.387634 650.065979,134.248077 
	C641.585388,123.086525 633.673279,111.331230 626.940918,99.051155 
	C620.870422,87.978462 616.256104,76.022430 611.900696,64.126068 
	C609.246277,56.875896 607.814270,49.072044 606.689941,41.391483 
	C604.771667,28.287577 603.527405,15.085014 602.000000,1.461943 
	C673.593689,1.000000 745.187378,1.000000 817.000000,1.000000 
	C817.000000,72.354080 817.000000,143.708374 817.000000,215.531342 
z"/>
<path fill="#5292B2" opacity="1.000000" stroke="none" 
	d="
M817.000000,524.000000 
	C817.000000,528.326172 817.000000,532.652283 817.000000,537.000000 
	C733.645752,537.000000 650.291565,537.000000 566.361450,536.670471 
	C564.714233,535.366028 563.785645,534.127563 562.549072,533.457336 
	C551.162598,527.286072 539.547180,521.517151 528.341125,515.038147 
	C512.721680,506.007568 497.087402,496.935638 482.045135,486.995178 
	C470.297119,479.231689 458.962677,470.673431 448.298950,461.477417 
	C431.820526,447.267120 415.810364,432.483124 400.108185,417.414551 
	C390.168640,407.876129 380.870728,397.622528 371.792023,387.246094 
	C361.736359,375.753021 351.926056,364.008942 342.643188,351.888428 
	C336.204773,343.481842 330.839111,334.253662 325.456207,325.307129 
	C329.250916,325.204437 332.583527,325.174255 335.916168,325.172211 
	C350.087616,325.163422 350.886475,324.357178 350.705322,310.188904 
	C350.585022,300.783051 348.921509,299.174408 339.670502,299.052704 
	C329.512695,298.919098 319.349487,298.808899 309.203400,298.356750 
	C304.961761,298.167725 301.914551,293.740967 301.887634,288.799133 
	C301.864105,284.474182 304.609741,281.626801 309.467529,281.219940 
	C312.117798,280.997925 314.795990,281.083893 317.461731,281.075653 
	C333.376343,281.026398 335.445374,278.751709 333.920319,262.942200 
	C333.379974,257.340698 331.416931,255.275238 325.750824,254.905106 
	C320.269989,254.547043 314.697479,254.925308 309.312408,254.062057 
	C306.791260,253.657913 303.467041,251.607407 302.485199,249.416458 
	C298.378418,240.252151 303.014496,233.360840 312.970581,233.204163 
	C321.967499,233.062576 330.973511,233.344284 339.964539,233.074066 
	C342.999359,232.982864 346.000488,231.772797 349.202576,231.362061 
	C353.114197,238.951370 356.660034,246.352905 360.640472,253.512817 
	C362.706390,257.228943 365.540985,260.517731 368.121094,264.460419 
	C368.153473,282.243988 368.001038,299.567261 368.106384,316.888947 
	C368.128876,320.587830 369.415527,324.560211 373.810760,324.872467 
	C380.619049,325.356201 387.485809,325.036469 394.327698,325.020752 
	C398.334564,325.011566 400.315704,322.631287 401.485779,319.105377 
	C402.955261,320.132141 404.284180,320.904968 405.229828,322.006775 
	C408.905640,326.289520 412.509857,330.636475 416.043365,335.037689 
	C418.910034,338.608276 421.325806,342.591980 424.488617,345.863586 
	C432.134918,353.772827 440.158966,361.315277 447.914825,369.120758 
	C452.076538,373.309143 455.683533,378.092499 460.091125,381.984131 
	C471.315002,391.894135 482.841034,401.462280 494.262848,411.147583 
	C497.297363,413.720764 500.254272,416.416840 503.488678,418.716309 
	C509.929718,423.295502 516.599426,427.552277 523.060059,432.104858 
	C528.969177,436.268768 534.702209,440.681946 540.572693,444.901886 
	C541.764038,445.758270 543.240112,446.209717 544.555725,446.903290 
	C550.477112,450.025177 556.407166,453.131409 562.298523,456.309204 
	C573.755310,462.488953 585.091980,468.901215 596.680847,474.820923 
	C601.000854,477.027649 605.998474,477.866760 610.486816,479.795502 
	C616.187744,482.245331 621.613586,485.331055 627.294006,487.834106 
	C631.367493,489.629059 635.689636,490.850769 639.854492,492.449097 
	C645.435852,494.591003 650.876709,497.145050 656.552246,498.983917 
	C663.787781,501.328278 671.218750,503.062286 678.525513,505.196289 
	C684.478821,506.935089 690.371582,508.880737 696.297119,510.715729 
	C696.767395,510.861359 697.287231,510.838623 697.777649,510.928741 
	C706.027039,512.444214 714.477417,513.287231 722.469238,515.668701 
	C731.088745,518.237244 739.671997,519.262695 748.552612,519.046631 
	C750.676208,518.994934 753.033630,519.023254 754.904480,519.861023 
	C761.005066,522.592896 767.309814,523.215820 773.894287,523.067017 
	C780.702820,522.912964 787.523743,523.285645 794.338867,523.444153 
	C801.892822,523.619751 809.446289,523.813904 817.000000,524.000000 
z"/>
<path fill="#4E8FB0" opacity="1.000000" stroke="none" 
	d="
M324.994141,325.392578 
	C330.839111,334.253662 336.204773,343.481842 342.643188,351.888428 
	C351.926056,364.008942 361.736359,375.753021 371.792023,387.246094 
	C380.870728,397.622528 390.168640,407.876129 400.108185,417.414551 
	C415.810364,432.483124 431.820526,447.267120 448.298950,461.477417 
	C458.962677,470.673431 470.297119,479.231689 482.045135,486.995178 
	C497.087402,496.935638 512.721680,506.007568 528.341125,515.038147 
	C539.547180,521.517151 551.162598,527.286072 562.549072,533.457336 
	C563.785645,534.127563 564.714233,535.366028 565.892822,536.670471 
	C511.979095,537.000000 457.958221,537.000000 403.468658,537.000000 
	C400.266327,533.954834 397.822327,530.569580 394.734772,527.939880 
	C389.368469,523.369263 383.287292,519.616577 378.066833,514.900024 
	C362.251709,500.611176 346.454254,486.283447 331.166046,471.439270 
	C324.093475,464.572174 318.288300,456.410645 311.777618,448.950256 
	C306.784485,443.228821 301.395721,437.845917 296.524658,432.026398 
	C289.534119,423.674713 282.470001,415.338776 276.126343,406.501495 
	C264.723053,390.615784 253.513046,374.570221 242.839615,358.189209 
	C235.833099,347.436066 229.954193,335.951080 223.457870,324.859680 
	C222.427505,323.100494 220.802765,321.689453 219.179504,319.641296 
	C224.659424,301.191132 230.397308,283.212189 236.170303,265.244507 
	C241.446213,248.823975 246.760086,232.415634 252.364349,216.144684 
	C254.701218,220.527802 256.704254,224.781204 258.767303,229.005280 
	C261.526398,234.654480 262.499573,241.408493 268.684479,245.465439 
	C268.784790,247.921402 268.818878,249.915298 268.819580,251.909180 
	C268.826996,273.180695 268.804016,294.452240 268.847321,315.723663 
	C268.861084,322.477539 270.913818,324.605103 277.649445,325.074829 
	C279.635193,325.213287 281.635376,325.156738 283.629059,325.168030 
	C297.417419,325.246063 311.205780,325.318420 324.994141,325.392578 
z"/>
<path fill="#5A96B5" opacity="1.000000" stroke="none" 
	d="
M464.531342,1.000000 
	C466.055420,17.388775 466.508911,33.846546 468.376740,50.142200 
	C469.633423,61.106312 472.593964,71.916679 475.333405,82.657814 
	C478.183258,93.831825 481.589020,104.868675 484.942871,115.907410 
	C486.433105,120.812248 488.064484,125.725662 490.204315,130.371475 
	C495.458679,141.779373 500.846100,153.136078 506.562683,164.317734 
	C510.978699,172.955521 515.802246,181.399689 520.773315,189.733887 
	C524.151001,195.396652 528.097168,200.720413 531.434692,206.574615 
	C528.748047,207.006165 526.387939,206.845703 524.088257,207.146912 
	C511.375275,208.812164 499.353027,212.243210 491.953094,223.804047 
	C483.352692,237.240387 484.487793,257.419434 501.475250,266.371613 
	C507.393890,269.490662 514.136902,271.261719 520.689392,272.908173 
	C529.372192,275.089935 538.326233,276.200989 546.992859,278.434967 
	C552.713318,279.909607 557.761292,282.809967 559.248352,289.524139 
	C561.266418,298.635742 556.911072,307.349976 547.975525,310.870575 
	C539.604187,314.168945 530.905090,314.743744 521.998169,313.532135 
	C508.994354,311.763184 497.548828,306.406830 486.895416,298.540283 
	C477.502258,287.411255 468.209473,276.600250 458.973755,265.439819 
	C460.465668,260.706360 462.239075,256.400726 463.274902,251.924393 
	C467.096069,235.411148 458.204712,219.477448 442.486755,213.005463 
	C431.673706,208.553131 420.500885,207.025253 408.904358,206.492615 
	C404.324310,195.654495 399.817352,185.162048 395.355682,174.650375 
	C394.140045,171.786392 393.040039,168.872498 391.923065,165.967651 
	C388.686127,157.549286 385.271881,149.192093 382.304352,140.679413 
	C379.982635,134.019287 378.128937,127.189339 376.236053,120.387871 
	C373.100311,109.120651 369.552216,97.927940 367.209595,86.492470 
	C365.188629,76.627251 364.345917,66.490875 363.441986,56.433071 
	C361.782715,37.971432 360.461914,19.479376 359.000000,0.999999 
	C394.020905,1.000000 429.041779,1.000000 464.531342,1.000000 
z"/>
<path fill="#5A96B5" opacity="1.000000" stroke="none" 
	d="
M569.848877,249.662186 
	C573.680786,253.431732 577.221313,257.576447 581.437256,260.851593 
	C584.783813,263.451324 588.957397,264.986542 593.193359,267.463806 
	C593.648315,284.389923 593.618408,300.846954 593.723328,317.303101 
	C593.772522,325.031647 595.708557,327.497742 603.305725,327.573975 
	C625.077087,327.792450 646.856079,327.728729 668.623352,327.317932 
	C671.412964,327.265320 674.151489,324.501068 676.913696,322.992981 
	C682.290344,324.733704 687.679810,326.436188 693.040527,328.224609 
	C700.141479,330.593658 707.278503,332.872955 714.289612,335.486847 
	C719.877625,337.570190 725.140625,340.665344 730.841431,342.266266 
	C736.505127,343.856781 742.558838,344.010620 748.395691,345.051239 
	C751.722900,345.644409 754.947021,346.798218 758.239685,347.609528 
	C760.449646,348.154083 762.681946,348.812164 764.932983,348.949707 
	C773.205627,349.455109 782.040527,348.089691 789.627502,350.582489 
	C798.583496,353.525146 807.266846,352.342224 816.531372,353.000000 
	C817.000000,384.020905 817.000000,415.041779 816.531372,446.531342 
	C805.756653,446.672638 795.162659,447.733765 785.216370,445.671417 
	C772.381287,443.009979 758.811584,445.066956 746.530273,439.319061 
	C745.271851,438.730072 743.545654,439.233551 742.080688,438.977478 
	C732.664917,437.331757 723.191101,435.927521 713.875793,433.825745 
	C706.142395,432.080902 698.561829,429.609497 690.991577,427.213623 
	C687.734802,426.182892 684.768616,424.223328 681.505005,423.227539 
	C676.007141,421.549988 670.311829,420.516113 664.822510,418.814667 
	C659.848999,417.273102 654.887878,415.522156 650.189758,413.296906 
	C640.665466,408.785767 631.320679,403.895325 621.905579,399.154022 
	C612.341370,394.337585 602.694580,389.675354 593.253174,384.628906 
	C587.742676,381.683502 582.505249,378.208160 577.250427,374.808167 
	C570.460510,370.415070 563.645142,366.041138 557.082092,361.323151 
	C550.234497,356.400635 543.422729,351.369202 537.052490,345.856964 
	C529.446289,339.275330 522.325562,332.132721 515.378662,325.217621 
	C529.376648,329.733612 542.585266,328.256744 555.522034,322.553589 
	C571.032532,315.715820 579.026917,299.574829 575.051453,283.213257 
	C572.419617,272.381195 564.477417,266.730774 554.699280,263.998779 
	C542.273193,260.526917 529.456177,258.480682 516.923767,255.354660 
	C507.621979,253.034470 503.702240,248.082169 503.407410,239.847824 
	C503.134460,232.224686 507.833313,225.253098 516.400085,223.165894 
	C524.144043,221.279144 532.281250,221.006470 539.891663,220.065735 
	C543.998657,231.369171 545.697266,232.912323 554.157898,234.125458 
	C555.125549,234.264206 556.054688,234.672272 557.088257,235.305420 
	C558.121948,238.926056 560.509827,239.744934 563.604980,239.426193 
	C563.637207,239.437393 563.620728,239.503540 563.531799,239.883270 
	C564.706238,242.202820 565.969604,244.142670 567.246704,246.478546 
	C567.279480,248.587265 566.390564,251.143051 569.848877,249.662186 
z"/>
<path fill="#4187AA" opacity="1.000000" stroke="none" 
	d="
M1.000003,240.468658 
	C2.012012,242.183243 3.222381,244.297897 4.004733,246.560547 
	C10.399317,265.054413 16.397951,283.692383 23.161467,302.049042 
	C27.863251,314.810028 33.257942,327.344849 38.926544,339.713318 
	C46.742001,356.766083 54.782043,373.733124 63.317657,390.434418 
	C74.723343,412.751556 86.698891,434.769348 100.813156,455.553253 
	C110.967834,470.506439 120.613052,485.811829 131.000900,500.598083 
	C136.995712,509.131165 144.123322,516.860596 150.520523,525.122559 
	C153.240097,528.634888 155.394913,532.584595 157.903198,536.667725 
	C105.717140,537.000000 53.434280,537.000000 1.000000,537.000000 
	C1.000000,438.312500 1.000000,339.624908 1.000003,240.468658 
z"/>
<path fill="#5593B3" opacity="1.000000" stroke="none" 
	d="
M817.000000,523.531372 
	C809.446289,523.813904 801.892822,523.619751 794.338867,523.444153 
	C787.523743,523.285645 780.702820,522.912964 773.894287,523.067017 
	C767.309814,523.215820 761.005066,522.592896 754.904480,519.861023 
	C753.033630,519.023254 750.676208,518.994934 748.552612,519.046631 
	C739.671997,519.262695 731.088745,518.237244 722.469238,515.668701 
	C714.477417,513.287231 706.027039,512.444214 697.777649,510.928741 
	C697.287231,510.838623 696.767395,510.861359 696.297119,510.715729 
	C690.371582,508.880737 684.478821,506.935089 678.525513,505.196289 
	C671.218750,503.062286 663.787781,501.328278 656.552246,498.983917 
	C650.876709,497.145050 645.435852,494.591003 639.854492,492.449097 
	C635.689636,490.850769 631.367493,489.629059 627.294006,487.834106 
	C621.613586,485.331055 616.187744,482.245331 610.486816,479.795502 
	C605.998474,477.866760 601.000854,477.027649 596.680847,474.820923 
	C585.091980,468.901215 573.755310,462.488953 562.298523,456.309204 
	C556.407166,453.131409 550.477112,450.025177 544.555725,446.903290 
	C543.240112,446.209717 541.764038,445.758270 540.572693,444.901886 
	C534.702209,440.681946 528.969177,436.268768 523.060059,432.104858 
	C516.599426,427.552277 509.929718,423.295502 503.488678,418.716309 
	C500.254272,416.416840 497.297363,413.720764 494.262848,411.147583 
	C482.841034,401.462280 471.315002,391.894135 460.091125,381.984131 
	C455.683533,378.092499 452.076538,373.309143 447.914825,369.120758 
	C440.158966,361.315277 432.134918,353.772827 424.488617,345.863586 
	C421.325806,342.591980 418.910034,338.608276 416.043365,335.037689 
	C412.509857,330.636475 408.905640,326.289520 405.229828,322.006775 
	C404.284180,320.904968 402.955261,320.132141 401.421783,318.686523 
	C401.272888,310.719391 401.457245,303.271973 401.757507,295.829285 
	C401.895538,292.407837 402.521057,288.824921 406.510162,288.084442 
	C410.944611,287.261200 415.131470,288.093445 417.250397,292.901276 
	C418.233856,295.132751 419.411865,297.334259 419.999908,299.675385 
	C424.147278,316.186127 446.963959,331.316376 466.097168,327.043488 
	C481.551208,341.916992 496.488617,356.868774 512.223938,370.927490 
	C521.702576,379.396149 532.376282,386.537598 542.603699,394.153534 
	C548.195984,398.317841 553.698181,402.717224 559.727112,406.159180 
	C576.012329,415.456757 592.322021,424.768616 609.075562,433.170319 
	C622.262634,439.783447 635.914917,445.614288 649.744995,450.759216 
	C663.873657,456.015259 678.360901,460.407257 692.894348,464.446503 
	C707.095947,468.393494 721.464172,471.879333 735.928711,474.697998 
	C747.107300,476.876312 758.534668,477.826294 769.876404,479.101044 
	C777.138123,479.917206 784.437500,480.457214 791.733643,480.891724 
	C800.147949,481.392853 808.577209,481.641632 817.000000,482.000000 
	C817.000000,495.687561 817.000000,509.375122 817.000000,523.531372 
z"/>
<path fill="#5593B3" opacity="1.000000" stroke="none" 
	d="
M358.531372,0.999999 
	C360.461914,19.479376 361.782715,37.971432 363.441986,56.433071 
	C364.345917,66.490875 365.188629,76.627251 367.209595,86.492470 
	C369.552216,97.927940 373.100311,109.120651 376.236053,120.387871 
	C378.128937,127.189339 379.982635,134.019287 382.304352,140.679413 
	C385.271881,149.192093 388.686127,157.549286 391.923065,165.967651 
	C393.040039,168.872498 394.140045,171.786392 395.355682,174.650375 
	C399.817352,185.162048 404.324310,195.654495 408.439636,206.554459 
	C402.919983,206.967041 397.774323,206.930176 392.630096,207.000000 
	C368.132721,207.332474 368.172852,203.297928 368.271606,231.158554 
	C368.310394,242.105118 368.116364,253.052521 368.028351,263.999542 
	C365.540985,260.517731 362.706390,257.228943 360.640472,253.512817 
	C356.660034,246.352905 353.114197,238.951370 349.355225,231.007202 
	C349.782623,225.819153 350.562500,221.278732 350.630859,216.727631 
	C350.743317,209.247498 348.771576,207.316330 341.317230,207.097473 
	C334.213654,206.888931 327.103333,206.909943 319.981079,206.448914 
	C317.641571,199.870560 315.043030,193.760208 313.044647,187.459518 
	C307.483490,169.925995 301.764923,152.425339 296.885956,134.697723 
	C292.754974,119.687965 288.642609,104.532372 286.440552,89.166367 
	C283.358276,67.658119 282.038666,45.896339 280.004333,24.239321 
	C279.277252,16.498421 278.664795,8.746753 278.000000,1.000000 
	C304.687561,1.000000 331.375122,1.000000 358.531372,0.999999 
z"/>
<path fill="#4E8FB0" opacity="1.000000" stroke="none" 
	d="
M165.997238,206.911194 
	C160.437271,186.021942 154.171967,165.288208 149.521454,144.198410 
	C145.124908,124.260223 141.455994,104.054482 139.226273,83.773010 
	C136.507889,59.046867 135.638870,34.117912 133.931686,9.279308 
	C133.761139,6.797875 133.325607,4.334655 133.006531,1.431491 
	C156.020889,1.000000 179.041794,1.000000 202.531403,1.466764 
	C203.666870,12.700267 204.367523,23.465054 204.987579,34.234478 
	C205.359741,40.698227 205.316483,47.199722 205.993454,53.628063 
	C206.624939,59.624302 208.220474,65.515381 208.935745,71.507172 
	C210.544144,84.980568 211.822266,98.493149 213.364090,111.974998 
	C213.586517,113.919838 214.601166,115.762444 215.111740,117.688789 
	C215.825775,120.382622 216.402878,123.112549 217.052231,125.823761 
	C219.056824,134.193481 220.981842,142.583542 223.102371,150.923843 
	C224.953949,158.206360 227.025436,165.433014 229.006027,172.682648 
	C229.874115,175.860168 230.711639,179.047028 231.643326,182.205963 
	C234.071198,190.437805 236.543427,198.656570 238.537323,206.952057 
	C219.629669,207.268372 219.758255,207.301147 215.973816,222.148819 
	C211.049530,241.468552 205.985260,260.754303 200.717102,279.982330 
	C200.117996,282.168915 197.818756,283.889648 196.307861,285.826385 
	C194.860672,283.743317 193.391052,281.675171 191.986618,279.563660 
	C191.727386,279.173950 191.738754,278.607025 191.613602,278.124908 
	C186.397812,258.035950 181.115509,237.963837 176.006027,217.847855 
	C174.591675,212.279510 172.222275,207.917557 165.997238,206.911194 
z"/>
<path fill="#5191B1" opacity="1.000000" stroke="none" 
	d="
M238.997955,206.880569 
	C236.543427,198.656570 234.071198,190.437805 231.643326,182.205963 
	C230.711639,179.047028 229.874115,175.860168 229.006027,172.682648 
	C227.025436,165.433014 224.953949,158.206360 223.102371,150.923843 
	C220.981842,142.583542 219.056824,134.193481 217.052231,125.823761 
	C216.402878,123.112549 215.825775,120.382622 215.111740,117.688789 
	C214.601166,115.762444 213.586517,113.919838 213.364090,111.974998 
	C211.822266,98.493149 210.544144,84.980568 208.935745,71.507172 
	C208.220474,65.515381 206.624939,59.624302 205.993454,53.628063 
	C205.316483,47.199722 205.359741,40.698227 204.987579,34.234478 
	C204.367523,23.465054 203.666870,12.700267 203.000061,1.466764 
	C227.687561,1.000000 252.375122,1.000000 277.531342,1.000000 
	C278.664795,8.746753 279.277252,16.498421 280.004333,24.239321 
	C282.038666,45.896339 283.358276,67.658119 286.440552,89.166367 
	C288.642609,104.532372 292.754974,119.687965 296.885956,134.697723 
	C301.764923,152.425339 307.483490,169.925995 313.044647,187.459518 
	C315.043030,193.760208 317.641571,199.870560 319.516418,206.512207 
	C305.585510,206.987091 292.103058,206.914932 278.623718,207.085464 
	C270.176575,207.192337 269.109680,208.309143 268.929840,216.561005 
	C268.723267,226.039658 268.703613,235.522400 268.602753,245.003357 
	C262.499573,241.408493 261.526398,234.654480 258.767303,229.005280 
	C256.704254,224.781204 254.701218,220.527802 252.317139,215.730133 
	C251.997437,208.986984 250.418472,207.300476 244.382812,207.077438 
	C242.587891,207.011108 240.792908,206.946152 238.997955,206.880569 
z"/>
<path fill="#5694B3" opacity="1.000000" stroke="none" 
	d="
M817.000000,481.531311 
	C808.577209,481.641632 800.147949,481.392853 791.733643,480.891724 
	C784.437500,480.457214 777.138123,479.917206 769.876404,479.101044 
	C758.534668,477.826294 747.107300,476.876312 735.928711,474.697998 
	C721.464172,471.879333 707.095947,468.393494 692.894348,464.446503 
	C678.360901,460.407257 663.873657,456.015259 649.744995,450.759216 
	C635.914917,445.614288 622.262634,439.783447 609.075562,433.170319 
	C592.322021,424.768616 576.012329,415.456757 559.727112,406.159180 
	C553.698181,402.717224 548.195984,398.317841 542.603699,394.153534 
	C532.376282,386.537598 521.702576,379.396149 512.223938,370.927490 
	C496.488617,356.868774 481.551208,341.916992 466.275513,326.744446 
	C467.187622,324.299866 468.737366,322.503357 468.890961,320.594482 
	C469.272675,315.851379 468.859924,311.050354 469.061493,306.285126 
	C469.274658,301.245148 466.276947,299.247620 462.088257,298.047760 
	C458.926392,297.141998 455.705780,296.340424 452.676208,295.092255 
	C442.791199,291.019592 441.313629,282.574005 449.039490,275.438080 
	C452.419281,272.316406 455.629456,269.011139 458.916687,265.789246 
	C468.209473,276.600250 477.502258,287.411255 486.611938,298.757507 
	C487.014008,301.079742 487.243134,303.101654 488.241974,304.615723 
	C494.780701,314.527496 503.656525,321.501617 514.994507,325.233124 
	C522.325562,332.132721 529.446289,339.275330 537.052490,345.856964 
	C543.422729,351.369202 550.234497,356.400635 557.082092,361.323151 
	C563.645142,366.041138 570.460510,370.415070 577.250427,374.808167 
	C582.505249,378.208160 587.742676,381.683502 593.253174,384.628906 
	C602.694580,389.675354 612.341370,394.337585 621.905579,399.154022 
	C631.320679,403.895325 640.665466,408.785767 650.189758,413.296906 
	C654.887878,415.522156 659.848999,417.273102 664.822510,418.814667 
	C670.311829,420.516113 676.007141,421.549988 681.505005,423.227539 
	C684.768616,424.223328 687.734802,426.182892 690.991577,427.213623 
	C698.561829,429.609497 706.142395,432.080902 713.875793,433.825745 
	C723.191101,435.927521 732.664917,437.331757 742.080688,438.977478 
	C743.545654,439.233551 745.271851,438.730072 746.530273,439.319061 
	C758.811584,445.066956 772.381287,443.009979 785.216370,445.671417 
	C795.162659,447.733765 805.756653,446.672638 816.531372,447.000000 
	C817.000000,458.354218 817.000000,469.708466 817.000000,481.531311 
z"/>
<path fill="#FEFEFE" opacity="1.000000" stroke="none" 
	d="
M676.921509,322.525421 
	C674.151489,324.501068 671.412964,327.265320 668.623352,327.317932 
	C646.856079,327.728729 625.077087,327.792450 603.305725,327.573975 
	C595.708557,327.497742 593.772522,325.031647 593.723328,317.303101 
	C593.618408,300.846954 593.648315,284.389923 593.552185,267.469757 
	C593.558228,264.347260 593.697266,261.688354 593.701416,259.029236 
	C593.722351,245.709167 593.640625,232.388611 593.727234,219.069077 
	C593.796448,208.424393 595.206970,207.041245 605.941101,207.014923 
	C625.920959,206.965912 645.901428,206.951157 665.881042,207.048325 
	C675.612061,207.095657 677.009583,208.657043 677.010376,218.426056 
	C677.010498,219.758072 676.929504,221.095718 677.022522,222.421173 
	C677.628418,231.050003 676.204041,233.782776 665.346313,233.836716 
	C655.856323,233.883865 646.365051,233.823212 636.876465,233.958481 
	C629.854797,234.058609 627.381592,236.812729 627.176941,244.310898 
	C626.971008,251.856354 629.295654,254.809647 636.176208,255.276855 
	C641.652161,255.648651 647.148865,255.708145 652.634583,255.945114 
	C657.244263,256.144226 659.534973,258.769409 659.953003,263.193848 
	C660.093567,264.681396 660.063599,266.187439 660.068054,267.685150 
	C660.108459,281.085175 658.919495,282.299927 645.341370,282.684570 
	C641.681030,282.788300 638.009338,282.696930 634.360718,282.951630 
	C629.872070,283.264984 627.313965,286.470215 627.217896,291.510315 
	C627.124512,296.410248 629.686646,299.942474 634.221619,300.135406 
	C645.523010,300.616211 656.838562,300.765198 668.148499,301.043518 
	C675.047791,301.213287 676.963684,303.146942 676.989319,310.071198 
	C677.004089,314.066620 676.951538,318.062317 676.921509,322.525421 
z"/>
<path fill="#FEFEFE" opacity="1.000000" stroke="none" 
	d="
M515.378662,325.217621 
	C503.656525,321.501617 494.780701,314.527496 488.241974,304.615723 
	C487.243134,303.101654 487.014008,301.079742 486.712341,299.075500 
	C497.548828,306.406830 508.994354,311.763184 521.998169,313.532135 
	C530.905090,314.743744 539.604187,314.168945 547.975525,310.870575 
	C556.911072,307.349976 561.266418,298.635742 559.248352,289.524139 
	C557.761292,282.809967 552.713318,279.909607 546.992859,278.434967 
	C538.326233,276.200989 529.372192,275.089935 520.689392,272.908173 
	C514.136902,271.261719 507.393890,269.490662 501.475250,266.371613 
	C484.487793,257.419434 483.352692,237.240387 491.953094,223.804047 
	C499.353027,212.243210 511.375275,208.812164 524.088257,207.146912 
	C526.387939,206.845703 528.748047,207.006165 531.536987,206.892914 
	C538.903381,207.586456 545.900269,207.889481 552.702026,209.202713 
	C562.371460,211.069626 566.180176,217.372131 564.348816,227.074448 
	C562.615356,236.257706 564.454163,239.095795 576.939514,244.968292 
	C573.975037,245.390594 572.286194,245.631195 570.253052,245.920822 
	C570.138550,246.705338 569.975159,247.824432 569.830322,249.302856 
	C566.390564,251.143051 567.279480,248.587265 567.450317,246.241272 
	C566.300354,243.573151 564.960571,241.538345 563.620728,239.503540 
	C563.620728,239.503540 563.637207,239.437393 563.475342,239.102722 
	C562.159546,235.924500 560.171509,234.461731 557.001648,234.955475 
	C556.054688,234.672272 555.125549,234.264206 554.157898,234.125458 
	C545.697266,232.912323 543.998657,231.369171 539.891663,220.065735 
	C532.281250,221.006470 524.144043,221.279144 516.400085,223.165894 
	C507.833313,225.253098 503.134460,232.224686 503.407410,239.847824 
	C503.702240,248.082169 507.621979,253.034470 516.923767,255.354660 
	C529.456177,258.480682 542.273193,260.526917 554.699280,263.998779 
	C564.477417,266.730774 572.419617,272.381195 575.051453,283.213257 
	C579.026917,299.574829 571.032532,315.715820 555.522034,322.553589 
	C542.585266,328.256744 529.376648,329.733612 515.378662,325.217621 
z"/>
<path fill="#FEFEFE" opacity="1.000000" stroke="none" 
	d="
M238.537308,206.952057 
	C240.792908,206.946152 242.587891,207.011108 244.382812,207.077438 
	C250.418472,207.300476 251.997437,208.986984 252.010010,215.587357 
	C246.760086,232.415634 241.446213,248.823975 236.170303,265.244507 
	C230.397308,283.212189 224.659424,301.191132 218.830063,319.536621 
	C215.899765,323.858582 211.946442,325.265503 207.192993,325.187500 
	C200.533447,325.078217 193.870300,325.213043 187.209320,325.161835 
	C177.258850,325.085388 175.047760,323.486267 172.103302,314.113617 
	C165.383041,292.722015 158.710419,271.315430 152.023285,249.913406 
	C148.654099,239.130371 145.210480,228.369568 141.961365,217.550400 
	C139.725128,210.104004 141.784180,207.293686 149.581223,207.034988 
	C154.737503,206.863892 159.904617,207.019424 165.532059,206.969971 
	C172.222275,207.917557 174.591675,212.279510 176.006027,217.847855 
	C181.115509,237.963837 186.397812,258.035950 191.613602,278.124908 
	C191.738754,278.607025 191.727386,279.173950 191.986618,279.563660 
	C193.391052,281.675171 194.860672,283.743317 196.307861,285.826385 
	C197.818756,283.889648 200.117996,282.168915 200.717102,279.982330 
	C205.985260,260.754303 211.049530,241.468552 215.973816,222.148819 
	C219.758255,207.301147 219.629669,207.268372 238.537308,206.952057 
z"/>
<path fill="#FEFEFE" opacity="1.000000" stroke="none" 
	d="
M458.973755,265.439819 
	C455.629456,269.011139 452.419281,272.316406 449.039490,275.438080 
	C441.313629,282.574005 442.791199,291.019592 452.676208,295.092255 
	C455.705780,296.340424 458.926392,297.141998 462.088257,298.047760 
	C466.276947,299.247620 469.274658,301.245148 469.061493,306.285126 
	C468.859924,311.050354 469.272675,315.851379 468.890961,320.594482 
	C468.737366,322.503357 467.187622,324.299866 466.094940,326.446533 
	C446.963959,331.316376 424.147278,316.186127 419.999908,299.675385 
	C419.411865,297.334259 418.233856,295.132751 417.250397,292.901276 
	C415.131470,288.093445 410.944611,287.261200 406.510162,288.084442 
	C402.521057,288.824921 401.895538,292.407837 401.757507,295.829285 
	C401.457245,303.271973 401.272888,310.719391 401.105164,318.583710 
	C400.315704,322.631287 398.334564,325.011566 394.327698,325.020752 
	C387.485809,325.036469 380.619049,325.356201 373.810760,324.872467 
	C369.415527,324.560211 368.128876,320.587830 368.106384,316.888947 
	C368.001038,299.567261 368.153473,282.243988 368.121094,264.460419 
	C368.116364,253.052521 368.310394,242.105118 368.271606,231.158554 
	C368.172852,203.297928 368.132721,207.332474 392.630096,207.000000 
	C397.774323,206.930176 402.919983,206.967041 408.529755,206.892914 
	C420.500885,207.025253 431.673706,208.553131 442.486755,213.005463 
	C458.204712,219.477448 467.096069,235.411148 463.274902,251.924393 
	C462.239075,256.400726 460.465668,260.706360 458.973755,265.439819 
M404.052582,232.450500 
	C403.599274,233.142563 402.765259,233.826660 402.750610,234.527878 
	C402.571869,243.084290 402.199127,251.661392 402.692505,260.185944 
	C402.789703,261.865204 406.149353,264.276001 408.345459,264.741913 
	C415.084778,266.171661 424.535156,261.100311 427.721588,255.054535 
	C430.433228,249.909607 429.481171,241.700729 425.652893,237.217957 
	C421.080536,231.863907 411.609131,229.482346 404.052582,232.450500 
z"/>
<path fill="#FEFEFE" opacity="1.000000" stroke="none" 
	d="
M268.684479,245.465439 
	C268.703613,235.522400 268.723267,226.039658 268.929840,216.561005 
	C269.109680,208.309143 270.176575,207.192337 278.623718,207.085464 
	C292.103058,206.914932 305.585510,206.987091 319.531311,206.893341 
	C327.103333,206.909943 334.213654,206.888931 341.317230,207.097473 
	C348.771576,207.316330 350.743317,209.247498 350.630859,216.727631 
	C350.562500,221.278732 349.782623,225.819153 349.169678,230.719223 
	C346.000488,231.772797 342.999359,232.982864 339.964539,233.074066 
	C330.973511,233.344284 321.967499,233.062576 312.970581,233.204163 
	C303.014496,233.360840 298.378418,240.252151 302.485199,249.416458 
	C303.467041,251.607407 306.791260,253.657913 309.312408,254.062057 
	C314.697479,254.925308 320.269989,254.547043 325.750824,254.905106 
	C331.416931,255.275238 333.379974,257.340698 333.920319,262.942200 
	C335.445374,278.751709 333.376343,281.026398 317.461731,281.075653 
	C314.795990,281.083893 312.117798,280.997925 309.467529,281.219940 
	C304.609741,281.626801 301.864105,284.474182 301.887634,288.799133 
	C301.914551,293.740967 304.961761,298.167725 309.203400,298.356750 
	C319.349487,298.808899 329.512695,298.919098 339.670502,299.052704 
	C348.921509,299.174408 350.585022,300.783051 350.705322,310.188904 
	C350.886475,324.357178 350.087616,325.163422 335.916168,325.172211 
	C332.583527,325.174255 329.250916,325.204437 325.456207,325.307129 
	C311.205780,325.318420 297.417419,325.246063 283.629059,325.168030 
	C281.635376,325.156738 279.635193,325.213287 277.649445,325.074829 
	C270.913818,324.605103 268.861084,322.477539 268.847321,315.723663 
	C268.804016,294.452240 268.826996,273.180695 268.819580,251.909180 
	C268.818878,249.915298 268.784790,247.921402 268.684479,245.465439 
z"/>
<path fill="#5F9AB7" opacity="1.000000" stroke="none" 
	d="
M557.088257,235.305420 
	C560.171509,234.461731 562.159546,235.924500 563.443176,239.091522 
	C560.509827,239.744934 558.121948,238.926056 557.088257,235.305420 
z"/>
<path fill="#5F9AB7" opacity="1.000000" stroke="none" 
	d="
M563.531799,239.883270 
	C564.960571,241.538345 566.300354,243.573151 567.436646,245.845215 
	C565.969604,244.142670 564.706238,242.202820 563.531799,239.883270 
z"/>
<path fill="#5A96B5" opacity="1.000000" stroke="none" 
	d="
M404.395813,232.204880 
	C411.609131,229.482346 421.080536,231.863907 425.652893,237.217957 
	C429.481171,241.700729 430.433228,249.909607 427.721588,255.054535 
	C424.535156,261.100311 415.084778,266.171661 408.345459,264.741913 
	C406.149353,264.276001 402.789703,261.865204 402.692505,260.185944 
	C402.199127,251.661392 402.571869,243.084290 402.750610,234.527878 
	C402.765259,233.826660 403.599274,233.142563 404.395813,232.204880 
z"/>
</svg>